# xmcd CD database file
#
# Track frame offsets:
#	150
#	19587
#	50937
#
# Disc length: 4440 seconds
#
# Revision: 0
# Processed by: cddbd v1.5.1PL0 Copyright (c) Steve Scherf et al.
# Submitted via: CDex 1.51
#
DISCID=21115603
DTITLE=酒井法子 - 天下無敵の愛
DYEAR=2004
DGENRE=Pop
TTITLE0=天下無敵の愛
TTITLE1=月明かりの下
TTITLE2=data
EXTD=YEAR: 2004
EXTT0=
EXTT1=
EXTT2=
PLAYORDER=
